<svg width="118" height="150" viewBox="0 0 118 150" fill="none" xmlns="http://www.w3.org/2000/svg">
<path d="M11.3935 140.638C9.46318 140.638 7.80859 140.362 6.15399 140.086C5.05093 139.811 4.22363 139.259 3.6721 138.708C2.8448 137.88 2.8448 136.777 3.39633 135.398C4.4994 133.192 5.60246 131.262 6.98129 129.332C5.32669 129.056 4.22363 128.78 2.8448 128.504C1.74174 128.228 1.1902 127.401 1.46597 126.298C2.0175 124.092 2.29327 121.886 3.39633 119.955C3.94786 119.128 4.22363 118.301 4.77516 117.474C5.32669 116.371 5.87823 115.267 6.98129 114.716C7.80859 114.164 7.80859 113.889 6.98129 113.337C5.87823 112.786 5.05093 111.958 3.94786 111.407C3.12057 110.855 3.12057 110.304 3.39633 109.476C3.94786 108.373 4.22363 106.994 5.32669 105.616C4.22363 105.616 3.39633 105.616 2.56903 105.34C1.1902 104.788 0.638672 104.513 0.638672 103.134C0.914438 100.1 0.914438 96.7912 2.0175 93.7577C2.8448 91.8274 3.6721 89.6212 4.4994 87.6909C5.60246 85.7605 7.25706 84.6574 8.91165 83.2786C11.6693 80.521 15.2543 79.1421 19.115 78.5906C21.0454 78.0391 23.2515 78.0391 25.4576 78.5906C28.491 79.1421 31.8002 79.4179 34.8337 80.2452C35.9367 80.521 37.0398 80.7967 38.4186 81.0725C38.9701 81.3483 39.2459 80.7967 39.5217 80.521C40.9005 77.7633 43.6582 75.5572 45.5885 73.0753C46.1401 72.248 46.9674 71.4207 47.2431 70.5934C47.7947 69.2145 48.8977 68.3873 49.725 67.2842C50.2766 66.7327 50.8281 66.1811 51.3796 65.3538C51.9311 64.5265 52.4827 63.975 53.31 63.4235C54.6888 62.0446 56.6192 61.7689 57.998 60.1143C60.2041 57.6324 63.5133 56.5293 65.9952 54.599C70.1317 51.8413 74.544 49.0836 78.6805 46.0502C80.6108 44.6714 82.8169 43.0168 84.7473 41.638C87.7807 39.4318 91.3657 38.053 94.9507 36.9499C98.2598 36.1226 101.293 35.2953 104.602 34.7438C111.772 33.9165 118.391 31.4346 125.285 30.3315C129.146 29.78 133.006 29.2285 136.591 28.9527C138.797 28.677 141.004 28.1254 143.485 27.5739C144.313 27.2981 143.761 26.4708 144.313 26.1951C144.864 25.9193 145.14 27.0224 145.692 26.4708C146.243 25.6435 147.07 25.092 147.622 24.2647C148.725 23.1616 149.552 21.7828 150.931 20.9555C152.586 20.1282 153.965 18.7494 155.068 17.3705C155.619 16.5432 156.446 15.7159 157.274 15.1644C160.583 12.9583 162.513 9.6491 164.444 6.3399C165.823 4.13378 168.029 2.75495 169.959 0.824585C170.235 0.824585 170.511 0.824585 170.786 0.824585C174.096 2.20341 177.68 2.47918 180.99 3.85801C182.644 4.68531 183.747 5.51261 184.85 7.1672C185.953 8.8218 187.332 10.2006 188.711 11.5795C191.193 13.7856 193.123 16.2675 194.778 19.0251C195.329 20.1282 196.157 20.9555 196.984 22.0586C198.087 23.9889 198.363 26.1951 198.639 28.1254C198.639 28.9527 198.087 29.78 197.811 30.3315C197.536 31.1588 196.708 31.7104 196.433 32.5377C196.433 32.8134 196.157 32.8134 195.881 32.8134C193.951 32.8134 192.848 33.9165 191.745 35.2953C191.469 35.5711 191.469 35.5711 191.193 35.8469C187.884 37.5015 185.402 40.2591 182.368 42.4653C177.405 46.0502 172.992 50.4625 168.029 54.3232C165.271 56.5293 162.789 58.7354 160.031 60.9416C158.928 61.7689 158.101 63.4235 157.274 64.5265C155.068 68.1115 152.586 71.4207 149.828 74.1783C147.898 76.1087 145.416 77.7633 143.21 79.4179C139.901 81.624 136.316 83.0029 132.455 83.8301C130.524 84.3817 128.87 85.209 127.215 86.0363C124.182 87.4151 120.873 87.6909 117.563 88.5182C112.048 89.897 106.533 91.8274 100.742 93.482C98.8114 94.0335 96.881 95.1366 95.2264 96.2396C94.6749 96.5154 93.8476 96.7912 93.2961 97.0669C90.5384 97.8942 88.3323 99.8246 86.1261 101.479C84.1958 102.858 82.2654 104.237 80.3351 105.616C80.0593 105.891 79.7835 106.167 79.5078 106.443C78.6805 106.994 78.1289 107.546 77.0259 107.822C75.647 108.373 73.9924 108.925 72.8894 109.752C71.7863 110.304 70.959 110.855 69.8559 111.407C69.5802 111.407 69.3044 111.407 69.3044 111.683C65.7195 114.44 61.0314 115.819 57.4465 118.577C56.3434 119.404 54.9646 119.68 53.8615 120.507C53.31 121.059 52.7584 121.61 52.7584 122.437C52.7584 126.574 51.6554 130.159 50.0008 133.744C48.8977 136.226 47.7947 138.708 45.8643 140.638C43.9339 142.844 42.0036 144.774 39.2459 145.877C37.3156 146.705 35.3852 148.084 33.1791 148.635C28.7668 149.738 24.3545 150.29 19.9423 149.738C17.7362 149.462 15.8058 149.187 13.8754 148.359C12.4966 147.808 11.6693 146.981 10.5662 146.153C10.0147 145.602 10.2905 144.774 10.2905 144.223C10.5662 143.12 11.1178 142.017 11.3935 140.638ZM105.706 90.4485C105.706 90.4485 105.43 90.4485 105.43 90.7243L105.706 90.4485C108.463 90.1728 110.945 88.7939 113.427 88.2424C117.012 87.4151 120.873 86.5878 124.458 85.7605C125.561 85.4847 126.388 85.209 127.215 84.3817C124.733 84.6574 122.251 85.209 119.77 85.7605C115.082 86.8636 110.394 88.5182 105.706 89.897C105.706 89.897 105.706 90.1728 105.706 90.4485ZM70.959 91.0001C70.959 91.0001 71.2348 91.0001 70.959 91.0001C70.959 90.7243 70.959 90.7243 70.959 91.0001C67.6498 92.3789 64.6164 94.585 61.583 96.2396C59.9284 97.0669 58.2738 98.17 56.6192 98.9973C53.31 100.652 50.5523 102.858 47.2431 104.513C45.3128 105.34 43.9339 106.994 41.7278 107.546C41.1763 107.822 40.9005 107.546 40.349 107.27C38.6944 106.443 37.0398 105.34 35.3852 105.064C33.1791 104.788 31.2487 104.513 29.0426 104.788C25.7334 105.064 22.7 105.616 19.6665 106.994C15.53 108.925 11.9451 111.683 8.63589 114.992C7.80859 115.543 6.98129 116.095 6.42976 116.922C4.77516 119.68 3.39633 122.713 2.8448 126.022C2.8448 126.574 2.8448 126.85 3.39633 126.85C4.77516 127.401 6.15399 127.677 7.80859 127.677C8.91165 127.677 9.46318 128.504 8.63589 129.332C7.25706 131.538 5.60246 133.468 4.77516 135.95C4.22363 137.329 4.22363 137.88 5.60246 138.432C6.15399 138.708 6.70552 138.983 7.25706 138.983C8.91165 139.259 10.5662 139.259 12.2208 139.259C13.3239 139.259 13.5997 139.811 13.0481 140.638C12.2208 141.741 12.2208 143.12 11.6693 144.499C11.3935 144.774 11.6693 145.326 11.9451 145.602C12.7724 146.153 13.5997 146.705 14.427 146.981C15.53 147.532 16.9089 147.532 18.0119 147.808C21.8727 148.635 25.4576 148.359 29.3183 147.808C33.1791 147.256 36.2125 145.326 39.5217 143.671C40.349 143.12 41.1763 142.844 42.0036 142.017C44.4855 139.535 46.6916 136.777 48.0704 133.468C49.725 129.883 51.1039 126.022 51.1039 122.162C51.1039 121.61 51.1039 121.334 50.5523 121.059C50.2766 121.059 50.0008 120.783 50.0008 120.507C50.0008 119.955 50.2766 119.955 50.5523 119.68C51.3796 119.404 52.2069 119.128 52.7584 118.852C55.5161 117.198 57.998 115.543 61.0314 114.164C64.0649 112.51 67.0983 110.855 70.1317 109.201C72.8894 107.822 75.3713 106.443 77.8532 104.788C79.232 103.961 80.6108 102.582 82.5412 101.479C81.9896 101.479 81.7139 101.479 81.7139 101.479C77.8532 102.858 73.9924 102.582 70.1317 102.306C68.2013 102.031 66.8225 100.652 66.8225 98.7215C66.8225 97.3427 67.374 95.9638 68.2013 94.8608C69.3044 93.482 70.4075 92.3789 70.959 91.0001ZM187.884 35.8469V36.1226C187.884 36.1226 188.16 36.1226 187.884 35.8469C188.435 35.8469 188.987 35.8469 188.711 35.2953C188.16 34.1923 188.711 34.468 189.263 34.468C190.09 34.468 190.641 34.468 190.09 33.365V33.0892C190.917 31.9861 190.917 30.8831 190.917 29.78C191.193 28.677 191.193 27.8497 191.469 26.7466C191.469 26.1951 191.745 25.6435 192.296 25.9193C193.123 25.9193 192.848 26.4708 192.848 27.0224C192.848 27.5739 192.848 27.8497 192.572 28.4012C192.296 29.5042 192.02 30.8831 192.02 32.2619C192.848 31.4346 193.951 31.1588 193.951 30.0558C193.951 28.677 194.502 27.5739 194.502 26.1951C194.502 25.6435 194.778 25.092 195.605 25.3678C196.708 25.3678 196.433 25.9193 196.433 26.1951C196.157 27.2981 196.157 28.4012 195.881 29.5042C197.536 28.9527 197.536 28.1254 197.26 26.1951C196.708 23.1616 195.054 20.9555 193.399 18.7494C192.572 17.6463 192.02 16.2675 191.193 15.4402C188.987 13.2341 186.505 11.0279 184.575 8.54603C182.92 6.61567 181.265 5.23684 179.059 4.68531C176.853 3.85801 174.371 3.58224 172.165 2.75495C171.062 2.47918 170.511 2.75495 170.235 3.58224C169.959 4.40954 169.683 4.68531 169.132 4.96107C168.029 5.51261 167.477 6.33991 166.65 7.44297C164.719 10.4764 162.513 13.5098 160.307 16.2675C158.377 18.4736 156.171 20.404 153.965 22.0586C152.31 23.1616 150.655 24.5405 149.277 25.9193L149.001 26.1951C148.449 27.5739 147.346 28.1254 146.243 28.9527C144.589 30.0558 142.658 30.0558 141.004 30.3315C137.143 31.1588 133.282 31.9861 129.421 32.2619C125.836 32.5377 122.527 33.0892 119.218 34.1923C117.012 35.0196 114.53 35.5711 112.324 35.5711C110.118 35.5711 108.187 36.1226 105.981 36.3984C104.602 36.6742 103.224 36.9499 101.845 37.2257C99.6387 37.5015 97.1568 37.7772 95.2264 39.1561C93.0203 40.5349 90.5384 40.8107 88.3323 42.741C86.6777 44.1198 84.7473 45.4987 82.5412 46.6017C81.9896 46.8775 81.7139 47.1533 81.1624 47.429C80.3351 48.5321 79.232 49.0836 77.8532 49.6352C76.1986 50.1867 75.0955 51.2898 73.9924 52.3928C73.7167 52.6686 73.7167 52.9444 73.1651 52.9444C70.1317 54.599 67.6498 56.8051 64.6164 58.1839C61.8587 59.5627 59.9284 61.7689 57.1707 63.4235C55.5161 64.2508 54.6888 65.9054 53.31 67.0084C52.4827 67.56 51.9312 68.1115 51.6554 68.9388C50.5523 71.4207 48.3462 73.0753 46.4158 75.0056C45.037 76.6602 43.1066 78.3148 41.7278 80.521C49.725 78.3148 57.7222 77.2118 64.0649 71.9722C64.0649 71.9722 63.7891 71.6964 63.5133 71.6964C63.2376 71.4207 62.9618 71.1449 63.2376 70.5934C63.5133 70.3176 63.7891 70.3176 64.3406 70.5934C64.6164 70.5934 64.8922 70.8691 64.8922 70.8691C65.7195 71.9722 67.0983 71.6964 67.9256 71.1449C71.7863 69.2146 76.1986 68.1115 80.0593 65.9054C81.1623 65.3538 81.4381 65.0781 80.3351 64.2508C79.7835 63.975 78.9562 63.6992 79.5078 62.8719C80.0593 62.0446 80.6108 62.8719 81.4381 62.8719C81.7139 62.8719 81.7139 62.8719 81.9896 63.1477C82.8169 63.6992 83.6442 63.6992 84.4715 63.6992C86.6777 63.6992 88.8838 62.8719 90.8142 61.7689C93.2961 60.6658 95.7779 59.287 98.5356 59.0112C97.7083 58.7354 97.4325 57.9081 96.6052 57.6324C96.3295 57.6324 95.7779 57.3566 95.7779 56.8051C96.0537 56.2535 96.6052 56.2536 97.1568 56.5293C99.6387 57.6324 101.569 59.287 102.672 61.7689C102.948 62.5962 102.948 63.1477 102.948 63.975C102.396 65.6296 101.845 67.56 101.018 69.2145C100.742 69.7661 100.466 70.0418 100.19 70.3176C98.2598 71.9722 95.778 72.7995 94.1234 75.0056C94.1234 75.2814 93.8476 75.2814 93.5718 75.2814C89.9869 77.7633 86.9534 80.7967 83.3685 83.0028C81.4381 84.1059 79.7835 85.7605 77.8532 86.8636C75.9228 87.9666 74.544 89.3455 73.4409 91.0001C73.4409 91.0001 73.1651 91.2758 73.4409 91.2758C73.4409 91.5516 73.7167 91.2758 73.7167 91.2758C75.0955 89.897 76.7501 89.6212 78.6805 89.0697C79.232 88.7939 79.7835 88.7939 80.3351 89.0697C82.8169 90.4485 84.7473 92.3789 85.2988 95.4123C85.5746 96.2396 85.2988 96.7912 84.4715 97.3427C83.92 97.6184 83.6442 97.8942 83.0927 98.17C80.8866 99.5488 78.6805 100.652 76.1986 101.479C78.6805 101.479 81.1623 100.652 83.6442 100.1C86.9534 99.273 89.9869 97.0669 93.2961 95.9639C94.3991 95.4123 95.778 94.8608 96.881 94.0335C100.19 92.1031 102.948 89.6212 107.084 88.7939C110.118 88.2424 113.151 86.8636 116.185 86.0363C120.045 84.9332 123.906 83.8301 128.043 83.2786C131.076 83.0028 133.834 83.0028 136.867 81.8998C141.831 79.9694 145.967 77.2118 149.828 73.6268C153.689 70.0418 156.171 65.6296 159.204 61.2173C160.031 60.1143 160.307 58.1839 162.238 58.4597L162.513 58.1839C163.065 55.9778 163.341 53.7717 164.168 51.5655C164.168 51.2898 163.892 50.7382 164.444 50.7382C164.995 50.7382 164.995 51.2898 164.995 51.5655C164.995 53.2201 164.444 54.8747 164.168 56.5293C165.271 55.702 166.098 55.1505 166.374 53.4959C166.374 51.2898 166.926 49.0836 166.926 46.8775C166.926 46.326 167.201 46.0502 167.753 46.0502C168.304 46.0502 168.58 46.6017 168.58 47.1533C168.304 49.3594 168.304 51.5655 167.753 53.7717V54.0474H168.029C168.856 53.2201 170.235 52.6686 170.235 51.2898C170.511 49.0836 170.786 46.6017 171.338 44.3956C171.338 43.8441 171.614 43.5683 171.889 43.2925C172.165 43.2925 172.441 43.2925 172.717 43.5683C172.992 44.1198 172.992 44.3956 172.717 44.9471C172.165 46.8775 171.889 48.8079 171.614 50.7382C171.614 50.7382 171.889 50.7382 171.889 51.014C172.717 50.4625 173.544 49.9109 173.82 48.5321C174.095 45.7744 174.647 43.0168 175.474 40.2591C175.474 39.7076 175.75 39.1561 176.302 39.4318C176.853 39.4318 176.853 39.9834 176.577 40.5349C176.302 40.8107 176.302 41.3622 176.302 41.638C176.026 43.5683 175.474 45.7744 175.199 47.9806C176.302 47.429 177.129 46.6017 177.68 45.7744C177.956 45.4987 178.508 45.2229 178.508 44.3956C178.784 43.2925 178.784 42.1895 179.059 41.0864C179.335 39.4318 179.611 37.5015 179.887 35.8469C179.887 35.2953 180.162 34.7438 180.714 35.0196C181.265 35.2953 181.265 35.8469 181.265 36.1226C180.438 38.3288 180.438 40.8107 179.887 43.2925C179.611 43.5683 179.611 43.5683 179.887 43.8441C179.887 44.1198 180.162 43.8441 180.162 43.5683C180.714 43.2925 181.265 42.741 181.817 42.4653C182.92 41.9137 183.472 40.8107 183.472 39.7076C183.472 38.6045 183.747 37.2257 184.023 36.1226C184.299 35.2953 184.575 34.7438 184.299 33.9165C184.299 33.0892 184.299 32.5377 184.85 31.9861C185.126 31.7104 185.402 31.7104 185.402 31.9861C185.953 32.5377 185.953 33.365 185.678 33.9165C185.402 35.8469 185.126 37.5015 184.575 39.4318C184.575 39.7076 184.299 39.7076 184.575 39.9834H184.85C185.402 39.4318 185.953 39.1561 186.781 38.6045C187.057 38.3288 187.332 38.3288 187.332 37.7772C187.608 35.2953 187.884 32.5377 188.435 30.0558C188.435 29.5042 188.711 28.9527 189.263 28.9527C189.814 28.9527 189.814 29.78 189.814 30.3315C188.987 31.7104 188.435 33.6407 187.884 35.8469ZM22.1484 79.6937C19.115 79.4179 16.3573 80.2452 13.8754 81.624C11.1178 83.0028 8.91165 85.209 6.70552 87.1393L6.42976 87.4151C3.94786 91.5516 2.29327 95.9639 2.29327 100.928C2.29327 103.961 2.29327 103.961 5.05093 103.961C6.70552 103.961 7.25706 105.064 6.42976 106.443C5.87823 107.27 5.60246 108.373 5.05093 109.201C4.77516 109.752 5.05093 109.752 5.32669 110.304C6.15399 111.407 7.80859 111.683 8.91165 112.51C9.18742 112.786 9.46318 112.51 9.46318 112.234C11.9451 109.201 15.53 107.27 19.115 105.616C24.9061 103.134 30.6972 102.582 37.0398 103.685C38.1428 103.961 39.7974 103.685 40.6247 104.513C41.7278 105.34 41.7278 104.788 42.2793 103.961C42.5551 103.685 42.5551 103.41 42.5551 102.858C42.5551 100.652 44.2097 99.5488 45.8643 98.7215C49.1735 97.0669 52.4827 95.6881 55.7919 94.3093C58.8253 93.2062 62.1345 92.3789 64.8922 90.7243C65.9952 89.897 66.8225 89.0697 68.2013 88.5182C70.959 87.4151 73.4409 86.312 75.9228 84.9332C80.0593 82.7271 83.92 79.9694 87.7807 77.2118C89.4353 75.8329 90.5384 73.9026 92.4688 73.0753C94.1234 72.248 95.2264 70.8691 96.881 70.0418C98.2598 69.4903 99.6387 68.3873 100.19 66.7327C100.466 65.9054 101.018 64.8023 101.293 63.975C101.845 62.5962 101.293 60.39 100.19 59.287C100.19 59.287 99.9144 59.0112 99.6387 59.0112C97.7083 59.287 95.7779 59.8385 94.3991 60.9416C92.4688 62.3204 90.5384 63.4235 88.3323 64.5265C84.7473 66.4569 80.8866 67.8357 77.0259 68.9388C73.7167 70.0418 70.6832 71.6964 67.374 72.5237C64.8922 73.351 62.4103 74.4541 60.2041 75.5572C57.998 76.6602 56.0676 77.4875 53.8615 78.0391C50.2766 78.8664 46.9674 79.9694 43.3824 81.0725C42.5551 81.3483 42.0036 81.624 41.1763 81.8998C39.7974 83.0028 38.6944 83.0028 37.3156 81.624L37.0398 81.3483C32.076 81.0725 27.1122 80.2452 22.1484 79.6937ZM71.5105 101.203C72.3378 101.755 72.3378 100.652 72.8894 100.376C76.4743 99.5488 79.5078 97.8942 82.5412 95.9639C82.8169 95.6881 83.0927 95.4123 82.8169 94.8608C82.5412 92.9304 81.1624 91.5516 79.7835 90.4485C78.9562 89.6212 77.5774 89.3455 76.7501 89.897C75.3713 91.0001 73.9924 92.1031 72.3378 93.2062C70.959 94.3093 70.1317 95.9639 68.7529 96.7911C68.2013 97.3427 67.9256 98.4457 68.2013 99.273C68.4771 100.1 69.0286 100.652 69.5802 100.652C70.1317 100.928 70.6832 100.928 71.5105 101.203ZM44.7612 103.685C46.9674 101.479 49.4493 100.652 51.6554 99.273C51.3796 99.273 51.3796 99.273 51.1039 99.273C48.8977 99.8246 47.2431 101.479 45.037 102.031C44.4855 102.306 44.7612 102.858 44.7612 103.685ZM56.6192 96.5154C55.5161 96.7912 54.6888 97.0669 54.1373 98.17C54.9646 97.6184 55.7919 97.3427 56.6192 96.5154ZM170.511 50.7382C170.511 50.4625 170.511 50.4625 170.511 50.7382C170.511 50.4625 170.511 50.7382 170.511 50.7382ZM52.2069 99.273C52.2069 99.273 52.2069 98.9973 52.2069 99.273C51.9312 98.9973 51.9312 99.273 52.2069 99.273C51.9312 99.273 51.9312 99.273 52.2069 99.273Z" fill="#0A0A0A"/>
</svg>
