<svg width="124" height="188" viewBox="0 0 124 188" fill="none" xmlns="http://www.w3.org/2000/svg">
<path d="M33.2922 27.3961C39.6084 25.2819 44.7122 27.0571 48.0196 33.3412C50.9562 30.8456 54.0061 28.1059 57.9078 29.9168C62.2971 31.954 66.896 32.9013 71.6082 33.6044C75.3622 34.4563 75.3347 37.7085 75.7777 40.5854C78.9306 41.4552 82.6674 41.7055 85.5937 43.0637C89.4953 44.8746 88.1695 49.0083 88.0286 52.5046C88.6297 52.4868 89.1174 52.7131 89.9623 52.8085C97.7141 54.6255 99.8708 62.7501 94.7463 68.6824C94.1624 69.3018 93.4652 70.1655 92.6375 70.6717C89.5875 73.4115 89.6218 74.6147 93.2968 76.914C98.5654 80.2498 101.402 86.9091 100.128 92.8476C99.9012 93.336 100.162 94.0508 100.406 94.1639C103.497 97.0827 102.511 100.484 101.883 103.754C101.254 107.024 98.9186 109.501 95.8343 111.038C95.3638 111.413 95.0066 111.544 94.2922 111.806C95.082 118.406 93.0865 120.151 86.4646 124.201C81.9687 126.863 75.2094 126.101 71.6307 122.956C70.1057 124.326 68.2235 125.826 66.829 127.554C64.624 130.389 60.5471 130.871 57.116 128.685C56.6283 128.459 56.2368 127.386 55.6358 127.404C49.8863 128.298 51.796 123.544 50.8653 120.441C45.8473 121.674 41.5713 119.392 37.0686 117.599C33.5413 116.259 31.2676 116.688 29.4369 119.993C26.5862 125.497 24.5803 131.096 21.7295 136.599C18.992 141.859 18.5454 147.291 18.2293 153.08C17.9133 158.87 15.691 161.104 9.66337 160.68C1.34484 160.084 -5.48304 156.915 -11.5347 151.435L-11.7785 151.322C-13.0149 150.155 -15.6011 148.064 -15.3745 147.575C-14.241 145.133 -12.2626 142.787 -10.2671 141.041C-8.6288 139.427 -5.75405 138.981 -4.60343 137.14C-2.64224 134.192 -1.41261 130.904 -0.670674 127.39C0.586499 120.85 1.24262 114.328 2.2731 108.276C0.208934 107.615 -1.25418 106.936 -2.83065 106.501C-3.9194 106.292 -5.00816 106.084 -6.07976 106.477C-12.0388 108.46 -15.9233 107.251 -19.3268 101.812C-19.5707 101.699 -19.9279 101.83 -20.1717 101.717C-26.0174 103.456 -29.1875 101.985 -31.7462 96.6418C-32.0072 95.927 -32.3987 94.8548 -32.0587 94.1222C-30.0013 90.3281 -31.9074 86.7721 -32.8553 83.0672C-33.5078 81.2803 -32.1305 78.9514 -31.8248 77.0156C-31.6153 75.9256 -31.4057 74.8356 -31.6668 74.1208C-33.0852 70.7911 -31.907 65.6985 -28.9704 63.2029C-26.6177 61.3268 -24.5088 59.3375 -22.7743 56.8776C-19.4187 52.202 -14.9846 51.5887 -10.0285 52.4049C-12.2987 44.5245 -10.4851 40.6173 -3.22782 37.7526C-3.32042 30.2893 3.0405 25.5245 10.3046 27.1151C11.1495 27.2105 12.4478 26.329 13.0317 25.7096C17.9123 19.6641 24.1324 18.3957 30.0363 22.9168C31.3861 23.8401 32.0386 25.627 33.2922 27.3961ZM74.0385 114.575C73.4202 113.991 73.1764 113.878 72.9325 113.765C72.1838 112.824 71.4351 111.883 70.6864 110.942C71.8885 110.906 73.3344 110.983 74.406 110.59C75.8348 110.066 77.7513 109.769 78.2047 108.792C79.242 107.195 79.3038 105.147 79.9667 103.08C80.0801 102.835 79.2352 102.74 79.1047 102.383C78.2426 101.686 77.3805 100.989 76.2746 100.179C77.2157 99.4283 78.1568 98.6779 79.2284 98.2848C82.1993 96.9924 82.4879 94.455 82.7764 91.9176C83.065 89.3802 81.7152 88.4569 79.4072 87.6825C76.742 87.0391 76.5771 85.4785 78.8165 83.8466C79.287 83.4713 79.8881 83.4535 80.1148 82.9651C80.7949 81.4998 82.1893 79.7726 82.0245 78.212C81.8768 77.253 79.6821 76.2344 78.3324 75.3111C78.0885 75.1979 77.3741 75.4599 77.2436 75.1026C76.5121 74.763 75.5367 74.3103 75.5195 73.7087C75.5023 73.1071 76.1996 72.2435 76.6701 71.8682C77.1407 71.493 77.9684 70.9867 78.6828 70.7247C82.4815 68.9261 82.5605 67.4787 79.94 64.1847C78.4425 62.3024 76.8832 62.4691 75.0972 63.1242C71.2986 64.9229 71.2986 64.9229 69.863 60.9916C69.2104 59.2047 68.0702 57.1914 66.7204 56.2681C63.777 54.3083 59.8478 55.7496 57.3989 58.4715C55.5339 60.574 53.4079 61.9618 51.1685 63.5937C50.698 63.9689 49.8531 63.8736 49.3654 63.6472C48.991 63.1767 48.8433 62.2177 48.8262 61.6161C49.5853 58.7035 50.5882 55.904 51.2168 52.634C52.1854 48.6314 49.8088 45.4506 45.9414 44.8429C41.5864 44.0088 41.0815 43.1808 42.5207 38.803C42.8436 37.4688 43.1493 35.5329 42.5139 34.3476C40.965 30.6606 37.211 29.8086 33.9001 31.8336C33.0723 32.3399 31.6435 32.864 30.7986 32.7686C30.3109 32.5423 29.545 30.9995 29.6412 30.1538C30.0088 26.169 27.0997 25.4124 24.304 24.4116C21.0206 23.1844 18.2935 24.59 16.8028 27.1631C16.0094 28.8725 15.7209 31.4099 14.6493 31.803C13.2205 32.3271 11.2525 30.82 9.43216 30.272C6.27924 29.4022 3.92652 31.2783 1.81765 33.2677C0.0659865 35.126 1.07572 36.7819 2.44266 38.3068C2.81702 38.7773 2.85134 39.9805 2.5113 40.7131C2.04076 41.0884 0.969166 41.4814 0.237607 41.1419C-2.07041 40.3675 -3.48205 41.4932 -4.76317 42.9762C-7.79596 46.3176 -7.57964 49.683 -5.67351 53.239C-4.14175 56.3245 -5.29236 58.1649 -8.78533 58.0278C-11.0762 57.8549 -13.4976 57.3247 -15.7884 57.1519C-16.8772 56.9433 -18.6632 57.5985 -18.8898 58.0869C-19.2574 62.0717 -22.4722 63.2509 -24.9383 65.3712C-27.1776 67.0032 -28.6683 69.5762 -27.2842 71.7027C-25.2819 74.4129 -26.8069 75.7828 -28.0708 77.8675C-28.7681 78.7312 -29.2214 79.708 -29.431 80.798C-29.2833 81.757 -28.8746 83.4307 -28.1431 83.7703C-23.8671 86.0517 -23.8671 86.0517 -26.0378 90.09C-26.2645 90.5785 -26.8484 91.1979 -26.7179 91.5553C-25.9348 93.6996 -25.3785 96.3323 -23.881 98.2146C-22.1397 100.21 -20.7624 97.8812 -19.2374 96.5113C-17.8258 95.3856 -15.9093 95.0879 -14.3672 94.3196C-14.2023 95.8802 -14.0375 97.4407 -13.7593 98.7571C-13.3506 100.431 -12.6981 102.218 -11.9322 103.761C-10.0329 102.861 -8.00304 102.319 -6.34756 101.307C-5.16262 100.669 -4.48255 99.2042 -3.42811 98.2096C-2.95757 97.8343 -2.24317 97.5723 -1.52877 97.3103C-1.26776 98.025 -0.76289 98.853 -0.859073 99.6988C-0.82475 100.902 -1.03428 101.992 -0.999954 103.195C2.06716 101.057 3.31396 98.3707 0.954453 95.7915C-2.15378 92.2711 -5.60204 89.4834 -8.93696 86.4515C-10.0429 85.6414 -11.3927 84.7181 -13.2748 86.219C-13.8587 86.8384 -16.0534 85.8198 -17.1593 85.0097C-17.647 84.7833 -17.829 82.6211 -17.829 82.6211C-15.703 81.2334 -15.0744 77.9634 -11.5814 78.1006C-9.53443 78.1602 -8.1228 77.0345 -9.9946 74.6817C-11.2482 72.9126 -10.551 72.0489 -8.61729 72.3528C-6.92748 72.5435 -5.23768 72.7342 -3.06016 73.1512C-2.52776 70.727 -1.99535 68.3028 -1.46295 65.8786C-1.2191 65.9917 -0.861902 65.8607 -0.618049 65.9739C-0.339873 67.2903 -0.305546 68.4935 0.0859767 69.5656C0.364153 70.882 0.886181 72.3115 1.16436 73.6279C2.33214 72.389 3.49992 71.1502 4.53718 69.5539C4.65053 69.3097 4.87722 68.8213 5.10391 68.3329C5.67064 67.1119 6.36787 66.2482 7.17845 65.1404C6.80409 64.6698 5.94203 63.9729 4.83611 63.1628C5.7772 62.4123 6.47443 61.5487 7.41552 60.7982C8.27759 61.4951 8.78245 62.3231 9.64452 63.02C14.2881 61.3167 15.2635 61.7694 14.6692 66.2426C17.8222 67.1124 18.5641 63.5982 21.195 63.0384C20.7588 64.6168 20.192 65.8378 19.7558 67.4163C19.1101 70.0847 18.351 72.9973 18.3063 75.6479C18.3235 76.2495 20.2914 77.7565 20.762 77.3813C23.6196 76.3331 26.2161 74.5701 29.3004 73.0335C28.1773 71.6218 27.6553 70.1923 26.5494 69.3822C24.4509 67.5177 25.6015 65.6773 26.7521 63.8368C26.9788 63.3484 27.9371 63.1995 28.5381 63.1817C28.782 63.2949 29.4002 63.8786 29.4173 64.4802C29.6784 65.195 29.3383 65.9276 29.3555 66.5292C33.1542 64.7306 34.7478 65.767 34.9984 70.3356C40.9746 68.954 40.0575 74.7614 42.0598 77.4716C42.156 76.6258 42.0255 76.2684 41.895 75.911C41.5996 73.9931 42.0187 71.8131 44.4229 71.7417C46.5832 71.5571 46.5214 73.6061 46.6862 75.1667C46.9987 77.6862 47.9122 80.188 44.9585 82.0819C44.6013 82.213 44.6184 82.8146 44.749 83.1719C45.2881 85.2031 45.4701 87.3653 46.1398 89.7538C47.2114 89.3607 47.9258 89.0987 48.8841 88.9498C49.4851 88.932 50.2167 89.2715 50.7044 89.4979C49.4748 92.7857 50.955 94.0664 53.9775 94.5788C53.9775 94.5788 54.2213 94.692 54.108 94.9362C55.1005 95.9905 55.4027 102.364 54.8359 103.585C54.4959 104.317 53.912 104.937 53.3281 105.556C54.4169 105.765 55.2618 105.86 56.3505 106.069C56.5944 106.182 57.0821 106.408 57.8137 106.748C56.8726 107.498 56.0448 108.004 55.7048 108.737C55.2514 109.714 55.1724 111.161 55.7906 111.745C58.655 115.152 58.655 115.152 55.9794 118.363C55.7527 118.851 55.526 119.339 55.4127 119.584C56.5357 120.995 57.5283 122.05 58.6514 123.461C59.0086 123.33 59.6096 123.312 60.0802 122.937C62.3196 121.305 64.6723 119.429 67.8424 120.901C68.5739 121.24 70.0027 120.716 70.7 119.852C71.2667 118.631 72.5306 116.547 74.0385 114.575ZM54.5438 114.431C51.8786 113.788 49.5706 113.014 47.5236 112.954C43.7867 112.704 40.6338 111.834 37.9171 109.386C34.2078 105.883 34.4964 103.346 39.1228 101.041C41.4927 99.7662 44.1064 98.6048 46.5896 97.0861C45.3807 92.6664 42.688 95.2752 40.4143 95.7039C35.9802 96.3172 31.5634 97.5321 27.2427 97.9012C23.2792 98.1393 21.8951 96.0128 22.7503 92.2544C23.7018 87.6502 26.1164 83.725 29.6369 80.61C31.519 79.1091 33.4012 77.6082 35.2834 76.1073C35.1529 75.7499 35.2662 75.5057 35.1357 75.1483C33.5764 75.315 31.8866 75.1243 30.7017 75.7616C27.9746 77.1672 25.378 78.9302 22.6509 80.3357C19.5667 81.8723 17.0148 80.9847 16.1974 77.6372C15.5277 75.2487 15.9296 72.4671 15.7305 69.7033C13.1786 68.8157 13.0034 71.1089 12.4538 72.9315C11.6157 77.2915 10.9081 82.0089 10.07 86.3689C9.9738 87.2147 9.03272 87.9652 8.57933 88.942C7.60392 88.4893 6.38466 87.9234 5.87979 87.0954C3.48596 83.313 1.33598 79.6438 -0.814 75.9746C-2.3733 76.1413 -3.9326 76.308 -5.4919 76.4747C-6.51201 78.6726 -7.53212 80.8704 -8.66557 83.3125C-7.69016 83.7652 -6.58424 84.5753 -5.60883 85.0281C0.03411 88.8344 5.09316 93.2602 5.90016 100.461C6.11647 103.827 5.73174 107.21 5.59086 110.706C4.98623 119.033 3.89389 127.134 0.754539 135.175C-0.361753 138.219 -2.09626 140.678 -5.06719 141.971C-6.25214 142.608 -7.43707 143.245 -8.86587 143.769C-8.13431 144.109 -7.40275 144.449 -6.93221 144.073C-4.07462 143.025 -1.52275 143.913 1.04629 145.402C3.61532 146.891 6.42821 148.494 9.33728 149.25C12.2464 150.007 14.5715 151.383 15.8595 154.355C16.069 153.265 16.1652 152.419 16.2614 151.573C16.9861 147.458 17.467 143.229 18.4357 139.226C18.8547 137.046 20.1187 134.961 21.0254 133.008C22.4818 129.231 23.9381 125.455 25.6383 121.792C29.2653 113.978 33.5346 111.804 41.4683 115.783C43.1753 116.575 45.1261 117.481 46.9293 117.427C48.8801 118.332 52.0159 118.601 54.5438 114.431ZM84.0647 73.8163C85.1363 73.4232 86.4518 73.1433 87.3928 72.3929C88.8045 71.2672 89.8417 69.6709 90.879 68.0747C92.0296 66.2342 93.5374 64.2627 94.0699 61.8385C94.8118 58.3243 93.3143 56.442 89.9347 56.0607C88.2449 55.87 86.3284 56.1677 83.9242 56.2391C83.7594 54.6785 83.5945 53.1179 83.4297 51.5574C82.7704 45.3151 79.7137 43.5995 74.5033 46.5238C72.9612 47.2921 72.2468 47.5542 71.7076 45.523C71.2989 43.8493 70.9864 41.3297 69.8805 40.5196C67.0505 38.3156 64.0899 35.7543 59.3501 38.3034C60.4321 34.0566 57.7841 34.0147 55.4932 33.8419C53.2023 33.6691 50.5714 34.2288 49.8123 37.1415C49.4895 38.4757 49.7677 39.792 50.1763 41.4658C49.5753 41.4836 48.3732 41.5193 46.9272 41.4418C49.8535 42.8 53.4769 43.2945 54.861 45.421C56.2451 47.5475 55.747 51.1749 55.9634 54.5403C59.1095 50.9547 62.9768 51.5624 66.7308 52.4143C68.3073 52.8492 70.2581 53.7547 71.1373 55.0532C73.0091 57.406 74.3932 59.5325 77.8862 59.6697C79.0883 59.634 80.1942 60.4441 81.3001 61.2542C84.8789 64.3993 85.2429 68.7237 84.0647 73.8163ZM74.1139 121.437C79.1833 122.009 82.8858 121.056 86.4578 119.746C90.387 118.305 90.3698 117.703 88.1065 114.278C86.8529 112.509 87.8558 109.709 89.8685 108.566C91.7679 107.667 93.7805 106.523 95.4189 104.909C98.9394 101.794 98.7917 100.835 96.0407 97.1836C94.6566 95.0571 91.9399 92.6089 95.7214 90.2087C96.4358 89.9467 96.611 87.6535 96.2194 86.5813C95.1754 83.7222 93.4169 81.1252 89.7935 80.6306C86.0395 79.7787 85.3937 82.4471 84.1298 84.5318C88.4401 88.0164 88.8556 94.1455 84.6379 98.1242C84.054 98.7436 83.13 100.096 83.5044 100.566C84.7923 103.539 83.415 105.867 82.151 107.952C79.7536 112.479 77.2257 116.648 74.1139 121.437ZM24.7355 94.363C31.3985 95.9716 36.8698 93.762 42.585 91.6656C39.1368 88.8779 40.9674 85.5722 41.4827 82.5464C40.3768 81.7363 39.5147 81.0393 38.4088 80.2292C37.059 79.3059 35.7264 78.9842 33.9576 80.2409C29.7227 83.618 26.367 88.2936 24.7355 94.363ZM-10.5489 148.034C-4.08858 155.188 3.58421 158.452 12.7133 157.941C12.0093 154.349 9.79746 152.729 6.28734 151.99C4.10982 151.573 1.91515 150.554 0.191016 149.16C-3.1439 146.128 -6.50636 146.349 -10.5489 148.034ZM38.1542 105.043C41.1662 109.41 44.9202 110.261 49.2409 109.892C49.2513 106.039 49.2617 102.185 49.5159 98.4443C45.9611 100.356 42.1795 102.756 38.1542 105.043ZM6.52554 84.427C6.88274 84.296 7.12659 84.4092 7.48379 84.2782C8.07805 79.805 8.91616 75.4449 9.51043 70.9717C9.02272 70.7454 8.77887 70.6322 8.29116 70.4058C6.42615 72.5083 4.44779 74.8551 2.58278 76.9576C3.98404 79.6856 5.25479 82.0563 6.52554 84.427Z" fill="#020202"/>
</svg>
